<svg width="1400" height="620" viewBox="0 0 1400 620" fill="none" xmlns="http://www.w3.org/2000/svg">
  <defs>
    <linearGradient id="page" x1="116" y1="54" x2="1286" y2="566" gradientUnits="userSpaceOnUse">
      <stop stop-color="#FCF8F1"/>
      <stop offset="1" stop-color="#F0E7D9"/>
    </linearGradient>
    <linearGradient id="panel" x1="370" y1="86" x2="1296" y2="236" gradientUnits="userSpaceOnUse">
      <stop stop-color="#FFFDF8"/>
      <stop offset="1" stop-color="#FAF2E6"/>
    </linearGradient>
    <filter id="shadow" x="48" y="36" width="1304" height="548" filterUnits="userSpaceOnUse" color-interpolation-filters="sRGB">
      <feFlood flood-opacity="0" result="BackgroundImageFix"/>
      <feColorMatrix in="SourceAlpha" type="matrix" values="0 0 0 0 0 0 0 0 0 0 0 0 0 0 0 0 0 0 127 0" result="hardAlpha"/>
      <feOffset dy="16"/>
      <feGaussianBlur stdDeviation="18"/>
      <feColorMatrix type="matrix" values="0 0 0 0 0.0941176 0 0 0 0 0.0901961 0 0 0 0 0.0745098 0 0 0 0.11 0"/>
      <feBlend mode="normal" in2="BackgroundImageFix" result="effect1_dropShadow_0_1"/>
      <feBlend mode="normal" in="SourceGraphic" in2="effect1_dropShadow_0_1" result="shape"/>
    </filter>
  </defs>

  <rect width="1400" height="620" rx="32" fill="#F6F0E5"/>

  <g filter="url(#shadow)">
    <rect x="72" y="56" width="1256" height="500" rx="28" fill="url(#page)"/>
    <rect x="72.75" y="56.75" width="1254.5" height="498.5" rx="27.25" stroke="#D9CCB7" stroke-width="1.5"/>

    <rect x="100" y="84" width="238" height="444" rx="24" fill="#151515"/>
    <rect x="128" y="114" width="18" height="18" rx="9" stroke="#F8F2E8" stroke-width="3"/>
    <rect x="156" y="116" width="116" height="14" rx="7" fill="#F8F2E8"/>

    <rect x="120" y="190" width="198" height="48" rx="18" fill="#F8F2E8"/>
    <rect x="146" y="208" width="118" height="12" rx="6" fill="#151515"/>
    <rect x="120" y="252" width="198" height="48" rx="18" fill="#202020"/>
    <rect x="146" y="270" width="84" height="12" rx="6" fill="#F8F2E8"/>
    <rect x="120" y="314" width="198" height="48" rx="18" fill="#202020"/>
    <rect x="146" y="332" width="64" height="12" rx="6" fill="#F8F2E8"/>
    <rect x="120" y="376" width="198" height="48" rx="18" fill="#202020"/>
    <rect x="146" y="394" width="72" height="12" rx="6" fill="#F8F2E8"/>
    <rect x="120" y="438" width="198" height="48" rx="18" fill="#202020"/>
    <rect x="146" y="456" width="74" height="12" rx="6" fill="#F8F2E8"/>

    <rect x="366" y="84" width="934" height="138" rx="24" fill="url(#panel)"/>
    <rect x="366.75" y="84.75" width="932.5" height="136.5" rx="23.25" stroke="#DED1BD" stroke-width="1.5"/>
    <rect x="404" y="116" width="224" height="12" rx="6" fill="#8F816B"/>
    <rect x="404" y="144" width="418" height="18" rx="9" fill="#151515"/>
    <rect x="404" y="178" width="540" height="10" rx="5" fill="#9C8F79"/>
    <rect x="1136" y="112" width="136" height="40" rx="20" fill="#FFFFFF"/>
    <rect x="1158" y="126" width="92" height="12" rx="6" fill="#151515"/>

    <rect x="366" y="248" width="934" height="280" rx="28" fill="#FFFCF7"/>
    <rect x="366.75" y="248.75" width="932.5" height="278.5" rx="27.25" stroke="#E2D6C4" stroke-width="1.5"/>

    <rect x="400" y="280" width="176" height="12" rx="6" fill="#151515"/>
    <rect x="1170" y="280" width="98" height="28" rx="14" fill="#FFFFFF"/>
    <rect x="1188" y="288" width="62" height="12" rx="6" fill="#151515"/>

    <rect x="400" y="324" width="264" height="172" rx="24" fill="#FFFDF8"/>
    <rect x="684" y="324" width="264" height="172" rx="24" fill="#FFFDF8"/>
    <rect x="968" y="324" width="300" height="172" rx="24" fill="#FFFDF8"/>
    <rect x="400.75" y="324.75" width="262.5" height="170.5" rx="23.25" stroke="#E6DACA" stroke-width="1.5"/>
    <rect x="684.75" y="324.75" width="262.5" height="170.5" rx="23.25" stroke="#E6DACA" stroke-width="1.5"/>
    <rect x="968.75" y="324.75" width="298.5" height="170.5" rx="23.25" stroke="#E6DACA" stroke-width="1.5"/>

    <rect x="430" y="354" width="94" height="12" rx="6" fill="#151515"/>
    <rect x="714" y="354" width="156" height="12" rx="6" fill="#151515"/>
    <rect x="998" y="354" width="132" height="12" rx="6" fill="#151515"/>

    <rect x="430" y="388" width="204" height="54" rx="18" fill="#F7F1E7"/>
    <rect x="714" y="388" width="204" height="54" rx="18" fill="#F7F1E7"/>
    <rect x="998" y="388" width="240" height="54" rx="18" fill="#F7F1E7"/>
    <rect x="452" y="407" width="98" height="10" rx="5" fill="#151515"/>
    <rect x="736" y="407" width="114" height="10" rx="5" fill="#151515"/>
    <rect x="1020" y="407" width="124" height="10" rx="5" fill="#151515"/>

    <rect x="430" y="456" width="164" height="16" rx="8" fill="#FFFFFF"/>
    <rect x="616" y="456" width="14" height="16" rx="8" fill="#151515"/>
    <rect x="714" y="456" width="196" height="10" rx="5" fill="#9C8E78"/>
    <rect x="998" y="456" width="210" height="10" rx="5" fill="#9C8E78"/>

    <rect x="400" y="548" width="190" height="10" rx="5" fill="#C2B7A4"/>
    <rect x="608" y="548" width="84" height="10" rx="5" fill="#D0C5B2"/>
  </g>
</svg>
